HIERARCHY
ROOT Hips
{
	OFFSET -0.001795 -0.223333 0.028219
	CHANNELS 6 Xposition Yposition Zposition Zrotation Yrotation Xrotation 
	JOINT LeftUpLeg
	{
		OFFSET 0.069520 -0.091406 -0.006815
		CHANNELS 3 Zrotation Yrotation Xrotation
		JOINT LeftLeg
		{
			OFFSET 0.034277 -0.375199 -0.004496
			CHANNELS 3 Zrotation Yrotation Xrotation
			JOINT LeftFoot
			{
				OFFSET -0.013596 -0.397961 -0.043693
				CHANNELS 3 Zrotation Yrotation Xrotation
				JOINT LeftToe
				{
					OFFSET 0.026358 -0.055791 0.119288
					CHANNELS 3 Zrotation Yrotation Xrotation
					End Site
					{
						OFFSET 0.000000 0.000000 0.000000
					}
				}
			}
		}
	}
	JOINT RightUpLeg
	{
		OFFSET -0.067670 -0.090522 -0.004320
		CHANNELS 3 Zrotation Yrotation Xrotation
		JOINT RightLeg
		{
			OFFSET -0.038290 -0.382569 -0.008850
			CHANNELS 3 Zrotation Yrotation Xrotation
			JOINT RightFoot
			{
				OFFSET 0.015774 -0.398415 -0.042312
				CHANNELS 3 Zrotation Yrotation Xrotation
				JOINT RightToe
				{
					OFFSET -0.025372 -0.048144 0.123348
					CHANNELS 3 Zrotation Yrotation Xrotation
					End Site
					{
						OFFSET 0.000000 0.000000 0.000000
					}
				}
			}
		}
	}
	JOINT Spine
	{
		OFFSET -0.002533 0.108963 -0.026696
		CHANNELS 3 Zrotation Yrotation Xrotation
		JOINT Spine1
		{
			OFFSET 0.005487 0.135180 0.001092
			CHANNELS 3 Zrotation Yrotation Xrotation
			JOINT Spine2
			{
				OFFSET 0.001457 0.052922 0.025425
				CHANNELS 3 Zrotation Yrotation Xrotation
				JOINT Neck
				{
					OFFSET -0.002778 0.213870 -0.042857
					CHANNELS 3 Zrotation Yrotation Xrotation
					JOINT Head
					{
						OFFSET 0.005152 0.064970 0.051349
						CHANNELS 3 Zrotation Yrotation Xrotation
						End Site
						{
							OFFSET 0.000000 0.000000 0.000000
						}
					}
				}
				JOINT LeftShoulder
				{
					OFFSET 0.078845 0.121749 -0.034090
					CHANNELS 3 Zrotation Yrotation Xrotation
					JOINT LeftArm
					{
						OFFSET 0.090977 0.030469 -0.008868
						CHANNELS 3 Zrotation Yrotation Xrotation
						JOINT LeftForeArm
						{
							OFFSET 0.259612 -0.012772 -0.027456
							CHANNELS 3 Zrotation Yrotation Xrotation
							JOINT LeftHand
							{
								OFFSET 0.249234 0.008986 -0.001171
								CHANNELS 3 Zrotation Yrotation Xrotation
								End Site
								{
									OFFSET 0.000000 0.000000 0.000000
								}
							}
						}
					}
				}
				JOINT RightShoulder
				{
					OFFSET -0.081759 0.118833 -0.038615
					CHANNELS 3 Zrotation Yrotation Xrotation
					JOINT RightArm
					{
						OFFSET -0.096012 0.032551 -0.009143
						CHANNELS 3 Zrotation Yrotation Xrotation
						JOINT RightForeArm
						{
							OFFSET -0.253742 -0.013329 -0.021401
							CHANNELS 3 Zrotation Yrotation Xrotation
							JOINT RightHand
							{
								OFFSET -0.255298 0.007772 -0.005559
								CHANNELS 3 Zrotation Yrotation Xrotation
								End Site
								{
									OFFSET 0.000000 0.000000 0.000000
								}
							}
						}
					}
				}
			}
		}
	}
}
MOTION
Frames: 16
Frame Time: 0.050000
0.000000 0.957133 0.000000 -2.148736 0.362307 1.283890 6.391875 0.005785 3.167235 -4.050404 0.429633 -4.736924 -13.120151 -8.699472 25.980509 0.000000 0.000000 0.000000 -1.983148 0.053803 -0.044039 -1.421509 -0.102025 -4.862674 7.699802 11.079168 10.805450 0.000000 0.000000 0.000000 4.375015 0.025040 -1.015084 -1.711421 0.800029 1.591837 -4.056753 2.170862 -0.270757 8.481155 -5.325833 -6.582822 0.000000 0.000000 0.000000 -22.824702 -6.137915 0.030600 -48.833164 1.205797 -5.529625 -10.879721 -25.465896 3.176514 0.000000 0.000000 0.000000 22.628176 -3.716339 -3.506366 58.423659 -1.270037 -5.942782 6.584310 32.203749 3.096246 0.000000 0.000000 0.000000 
-0.000050 0.956382 0.001067 -2.239524 -0.688242 1.806616 6.194209 0.029960 3.264505 -3.738314 0.419125 -5.468174 -12.489191 -8.246379 25.615890 0.000000 0.000000 0.000000 -2.147994 0.153485 -1.134436 -1.200098 -0.067900 -3.858025 8.109031 12.246820 10.174316 0.000000 0.000000 0.000000 5.353322 0.049601 -1.407612 -2.658808 1.280295 3.013205 -4.764874 2.881688 -2.344702 9.812862 -6.220844 -6.365689 0.000000 0.000000 0.000000 -23.225430 -6.038692 -0.285673 -48.189951 2.105255 -5.553245 -11.586260 -25.518563 3.293356 0.000000 0.000000 0.000000 22.250121 -4.724257 -4.010119 59.859898 -2.854534 -6.640532 6.234018 33.116547 3.083353 0.000000 0.000000 0.000000 
-0.000034 0.955653 0.001841 -1.822983 -0.827475 1.575655 6.064422 0.051104 3.493096 -4.336470 0.459637 -5.300584 -12.488316 -8.260754 25.635780 0.000000 0.000000 0.000000 -2.234742 0.123454 -0.750577 -1.934263 -0.018232 -3.893010 8.030984 12.540577 9.526790 0.000000 0.000000 0.000000 5.030793 0.036974 -1.204639 -1.647650 0.776172 1.657365 -5.898960 3.129830 -1.621417 9.358792 -6.050638 -5.759392 0.000000 0.000000 0.000000 -23.098998 -6.391513 -0.180468 -48.221897 2.770789 -5.847744 -12.054143 -25.196407 3.341439 0.000000 0.000000 0.000000 23.676852 -3.538996 -3.312891 58.443026 -2.387875 -6.394916 5.388483 32.272416 2.810820 0.000000 0.000000 0.000000 
-0.000127 0.955678 0.002727 -2.080626 -0.991727 1.551891 6.141695 0.056955 3.663025 -3.998541 0.438992 -5.390998 -12.354539 -8.203286 25.453768 0.000000 0.000000 0.000000 -1.976560 0.132564 -0.923750 -2.114318 -0.006343 -3.896819 8.581039 13.106988 10.300583 0.000000 0.000000 0.000000 5.425237 0.059836 -1.459792 -1.947070 0.924150 2.340644 -5.736723 2.843961 -2.789254 9.606166 -6.419325 -4.752415 0.000000 0.000000 0.000000 -23.225408 -6.317685 -0.178474 -48.813790 3.445769 -6.121832 -11.089850 -25.048174 3.113532 0.000000 0.000000 0.000000 22.770411 -3.197647 -3.160949 59.349458 -2.614213 -6.447401 4.398002 31.058179 2.371764 0.000000 0.000000 0.000000 
-0.000282 0.955447 0.003597 -1.901772 -0.698636 1.434469 5.662687 0.086993 3.943671 -3.428746 0.401173 -5.647703 -12.484761 -8.355930 25.395644 0.000000 0.000000 0.000000 -2.134051 0.103146 -0.541919 -2.215546 -0.028987 -4.424125 8.666314 13.039044 10.678420 0.000000 0.000000 0.000000 5.241397 0.060145 -1.452445 -1.611180 0.751780 2.413602 -6.099711 2.706779 -3.255695 9.261306 -6.342336 -3.883393 0.000000 0.000000 0.000000 -23.758314 -6.310502 -0.300768 -48.371819 3.479694 -6.000239 -11.743980 -24.259172 3.143549 0.000000 0.000000 0.000000 23.060361 -3.411494 -3.295251 58.643785 -2.565753 -6.304565 4.932145 29.742028 2.385042 0.000000 0.000000 0.000000 
-0.000528 0.955061 0.004407 -1.862655 -0.417425 1.303599 5.490446 0.106580 4.278722 -3.117293 0.382139 -5.967893 -12.616563 -8.522038 25.318334 0.000000 0.000000 0.000000 -2.121518 0.084320 -0.334920 -2.270013 -0.032824 -4.566676 8.610206 12.850569 10.822345 0.000000 0.000000 0.000000 5.230954 0.061418 -1.451484 -1.503726 0.693819 2.517846 -6.082091 2.474907 -3.501970 9.135617 -6.367905 -3.319379 0.000000 0.000000 0.000000 -24.225778 -6.243044 -0.376099 -48.519128 3.432515 -5.976520 -10.915961 -23.761691 2.907868 0.000000 0.000000 0.000000 22.749558 -3.037342 -3.076192 58.607911 -2.680896 -6.321702 4.324421 28.870226 2.145672 0.000000 0.000000 0.000000 
-0.000922 0.954670 0.004850 -1.760697 0.050668 1.407762 5.320849 0.107827 4.316210 -2.883249 0.368097 -6.318867 -12.846067 -8.742846 25.331159 0.000000 0.000000 0.000000 -2.130775 0.055630 0.002727 -2.282509 -0.071540 -5.255638 8.341461 12.295626 10.905121 0.000000 0.000000 0.000000 5.122528 0.067389 -1.560687 -1.392238 0.630215 2.636491 -6.150011 2.259958 -3.711067 9.275264 -6.429684 -3.456263 0.000000 0.000000 0.000000 -24.510351 -5.988484 -0.577796 -48.591726 3.701774 -6.065546 -11.053609 -23.323720 2.877285 0.000000 0.000000 0.000000 22.631313 -3.178770 -3.142702 58.501559 -2.925341 -6.401551 4.420955 28.362068 2.122921 0.000000 0.000000 0.000000 
-0.001429 0.954459 0.004924 -1.859220 0.194697 1.557334 5.206575 0.100205 4.112866 -2.410083 0.341006 -6.282614 -12.840176 -8.817996 25.130720 0.000000 0.000000 0.000000 -1.948013 0.057360 -0.073347 -2.444457 -0.064159 -5.295449 8.342122 12.422917 10.760345 0.000000 0.000000 0.000000 5.190730 0.057243 -1.478420 -1.335268 0.598691 2.686502 -6.227752 2.259891 -4.230707 9.809591 -6.770955 -3.579742 0.000000 0.000000 0.000000 -24.713488 -5.949821 -0.687545 -48.396935 4.022175 -6.094614 -10.808405 -23.305823 2.813983 0.000000 0.000000 0.000000 22.564998 -3.138549 -3.096176 58.405441 -3.119562 -6.429804 4.568193 27.197917 2.052394 0.000000 0.000000 0.000000 
-0.002004 0.954406 0.004664 -1.837565 0.325394 1.683449 5.228015 0.083314 3.842344 -2.400525 0.337462 -6.119988 -12.887325 -8.869991 25.113293 0.000000 0.000000 0.000000 -1.886179 0.058210 -0.100308 -2.639576 -0.059217 -5.405193 8.374467 12.595105 10.640014 0.000000 0.000000 0.000000 5.013234 0.034649 -1.239308 -1.250333 0.557431 2.469400 -5.990184 2.221265 -4.286153 9.971895 -6.820005 -3.858543 0.000000 0.000000 0.000000 -24.802895 -5.614701 -0.881258 -48.661961 3.977300 -6.117818 -10.453830 -23.033519 2.709923 0.000000 0.000000 0.000000 22.334272 -3.058272 -3.041384 58.078515 -3.550401 -6.580827 5.057611 26.738621 2.114906 0.000000 0.000000 0.000000 
-0.002607 0.954581 0.004177 -1.814814 0.211579 1.873315 5.133398 0.082170 3.718761 -2.235795 0.331634 -6.296694 -12.820478 -8.768094 25.176493 0.000000 0.000000 0.000000 -1.892318 0.069373 -0.216673 -2.779580 -0.061455 -5.559098 8.599165 13.037383 10.658662 0.000000 0.000000 0.000000 4.935666 0.025155 -1.156990 -1.287742 0.580746 2.222353 -5.719393 2.165654 -4.214060 10.081465 -6.765220 -4.444503 0.000000 0.000000 0.000000 -24.763519 -5.345655 -0.964760 -49.021311 3.801127 -6.130967 -10.261745 -22.933337 2.667160 0.000000 0.000000 0.000000 21.913599 -2.690762 -2.840194 58.120753 -3.558626 -6.581247 5.369219 25.871301 2.090091 0.000000 0.000000 0.000000 
-0.003200 0.954706 0.003623 -1.839038 0.291298 1.918656 5.301349 0.068504 3.638768 -2.400865 0.340425 -6.333153 -12.881461 -8.780595 25.280648 0.000000 0.000000 0.000000 -1.797213 0.074336 -0.303333 -3.024168 -0.050572 -5.608020 8.837241 13.400522 10.853281 0.000000 0.000000 0.000000 4.860045 0.016277 -1.057650 -1.266344 0.565625 2.451028 -5.531525 2.065006 -4.334946 10.428046 -6.913528 -4.854387 0.000000 0.000000 0.000000 -24.765649 -5.287836 -0.968385 -49.125406 3.591630 -6.061143 -9.645020 -22.820874 2.534741 0.000000 0.000000 0.000000 21.778843 -2.571777 -2.793053 58.216097 -3.439850 -6.516068 5.407620 25.112469 2.018957 0.000000 0.000000 0.000000 
-0.003790 0.955048 0.003042 -1.825637 0.346507 2.123698 5.559254 0.045656 3.482848 -2.805650 0.362747 -6.542323 -12.960450 -8.729900 25.560010 0.000000 0.000000 0.000000 -1.825243 0.090350 -0.475658 -3.083975 -0.045929 -5.587883 8.928532 13.694138 10.726476 0.000000 0.000000 0.000000 4.828319 0.011826 -1.043182 -1.277677 0.573220 2.263974 -5.261237 1.845715 -4.000685 10.660494 -6.985345 -5.332370 0.000000 0.000000 0.000000 -24.750890 -4.987278 -1.032602 -49.172487 3.072678 -5.917137 -9.277424 -23.038765 2.500511 0.000000 0.000000 0.000000 21.563000 -2.285470 -2.675197 58.105926 -3.446411 -6.525437 5.836386 25.010939 2.085859 0.000000 0.000000 0.000000 
-0.004251 0.955448 0.002498 -1.889076 0.394336 2.129299 5.687915 0.033073 3.351356 -2.845971 0.363165 -6.403793 -12.994986 -8.713300 25.659761 0.000000 0.000000 0.000000 -1.631440 0.092408 -0.552225 -3.290580 -0.026884 -5.484072 8.958996 13.742603 10.755750 0.000000 0.000000 0.000000 4.780967 -0.003108 -0.861573 -1.055862 0.463424 2.168229 -5.142070 1.842096 -3.956938 11.228294 -7.323473 -5.626353 0.000000 0.000000 0.000000 -24.703700 -5.001878 -1.012411 -49.180607 2.876666 -5.845533 -9.065994 -22.994511 2.454402 0.000000 0.000000 0.000000 21.670074 -2.176036 -2.625288 58.076993 -3.618168 -6.610430 6.083015 24.719148 2.106436 0.000000 0.000000 0.000000 
-0.004623 0.955969 0.002014 -1.954698 0.160495 2.104347 5.804870 0.029106 3.284569 -2.924378 0.367777 -6.228892 -12.891966 -8.565481 25.754106 0.000000 0.000000 0.000000 -1.671050 0.099443 -0.617848 -3.194978 -0.031252 -5.454881 9.286401 14.185223 11.032890 0.000000 0.000000 0.000000 4.779797 -0.017425 -0.678470 -1.144304 0.515052 1.846418 -4.838551 1.842422 -3.513077 11.871159 -7.692544 -6.109191 0.000000 0.000000 0.000000 -24.601274 -4.985295 -0.914855 -49.067087 2.428533 -5.716656 -9.014014 -22.960219 2.457166 0.000000 0.000000 0.000000 21.589014 -1.913804 -2.513414 58.005907 -3.657353 -6.660515 6.358605 24.597383 2.143754 0.000000 0.000000 0.000000 
-0.004857 0.956533 0.001690 -1.903703 0.258311 1.983904 5.835684 0.032296 3.398143 -3.027652 0.373115 -6.269358 -13.003291 -8.557999 26.009068 0.000000 0.000000 0.000000 -1.687923 0.096493 -0.588154 -3.201647 -0.021446 -5.324429 9.258027 14.044445 11.158353 0.000000 0.000000 0.000000 4.697495 -0.025582 -0.548225 -1.069836 0.478573 1.789577 -4.775739 1.904823 -3.249789 12.191392 -7.873387 -6.355931 0.000000 0.000000 0.000000 -24.386460 -5.229045 -0.766472 -49.050190 1.909207 -5.528142 -8.648109 -22.907298 2.377537 0.000000 0.000000 0.000000 21.708335 -1.817879 -2.436971 58.022198 -3.523406 -6.633224 6.424140 24.463446 2.151162 0.000000 0.000000 0.000000 
-0.005090 0.957002 0.001522 -1.823787 0.084190 1.870149 5.745336 0.047270 3.550973 -3.026648 0.374651 -6.290157 -12.953642 -8.439069 26.163656 0.000000 0.000000 0.000000 -1.815896 0.094531 -0.531790 -3.104682 -0.029210 -5.348786 9.412689 14.132507 11.432473 0.000000 0.000000 0.000000 4.633046 -0.026161 -0.506849 -1.181046 0.536135 1.735205 -4.560656 1.898674 -2.790679 12.246860 -7.903403 -6.524009 0.000000 0.000000 0.000000 -24.286533 -5.248913 -0.666181 -48.916619 1.518200 -5.416707 -8.875080 -22.974546 2.443765 0.000000 0.000000 0.000000 21.496883 -1.690684 -2.377355 58.317364 -3.477465 -6.688443 6.478128 25.017493 2.215255 0.000000 0.000000 0.000000 
